<?xml version="1.0" encoding="UTF-8"?><svg id="Capa_1" xmlns="http://www.w3.org/2000/svg" viewBox="0 0 532.3 338.5"><g><path d="M483.8,205c14.5-21.2,22.9-46.8,22.9-72.8C506.7,59,445.6,0,370.5,0c-50.4-.4-96.7,27.3-121.1,71.3-15.5-9.7-33.8-14.5-52-14.5-49.5,0-90.6,35.9-97.1,82.7C44.7,140.8,0,184.6,0,239h0c0,30.6,14.1,59,38.6,77.8,13.4,13.4,31.7,21.2,50.8,21.2h1.3c8.2,.6,16.2,.6,24.3,0H462c38.8,0,70.3-30.6,70.3-68-1.3-30-20.4-55.8-48.5-65h0Z" fill="#0c8040"/><path d="M265.6,332.8l.4-1.3c0-.6,.6-1.3,1.5-1.3s1.3,.6,1.3,1.5v.4h0l-.4,.6c-.4,.6-.6,1.3-1.5,.6-.8,.8-1.3,0-1.3-.6h0Z" fill="#fef5f9"/><path d="M271.7,307.2l.4-1.3c.4-1.3,1.5-2.1,2.7-2.1s2.1,1.5,2.1,2.7h0v.4l-.4,.6c-.4,1.3-1.5,2.1-2.7,1.5h0c-1,.6-2.1-.4-2.1-1.9Z" fill="#fef5f9"/><path d="M278.4,281.4l.4-1.3c.6-2.1,2.1-2.7,4.2-2.1,1.5,.4,2.1,2.1,2.1,3.4v.4l-.4,.6c-.6,2.1-2.1,2.7-4.2,2.1-1.5,.2-2.1-1.7-2.1-3.1h0Z" fill="#fef5f9"/><path d="M284.9,255.8l.4-1.3c.6-2.1,2.7-3.4,4.8-2.7,2.1,.6,3.4,2.7,2.7,4.8v.4l-.4,.6c-.6,2.1-2.7,3.4-4.8,2.7-1.9-.4-3.4-2.7-2.7-4.6h0Z" fill="#fef5f9"/><path d="M291.2,229.8l.4-1.3c.4-2.7,2.7-4.6,6.1-4.2,3.1,.4,4.6,2.7,4.2,6.1,0,.4-.4,.4-.4,.6v.4l-.4,.6c-1.3,2.7-4.6,3.8-6.7,2.1-1.9,0-3.1-2.3-3.1-4.4h0Z" fill="#fef5f9"/><path d="M297.5,203.9l.4-1.3c.6-3.4,4.2-5.2,6.9-4.6,3.4,.6,5.2,4.2,4.6,6.9v.4l-.4,.6c-1.3,2.7-4.6,4.8-7.6,3.8-2.7,.6-4.6-2.5-4-5.9h0Z" fill="#fef5f9"/><path d="M304,178.3l.4-1.3c.6-3.8,4.8-6.1,8.6-4.8,3.8,.6,6.1,4.8,4.8,8.6h0v.4l-.4,1.3c-1.3,3.8-5.2,5.5-9,4.2-3.1-1.5-5.2-5-4.4-8.4h0Z" fill="#fef5f9"/><path d="M310.3,152.5l.4-1.3c1.3-4.2,5.5-6.7,9.7-5.5,4.2,1.3,6.7,5.5,5.5,9.7h0l-.4,.4-.4,.6c-1.5,4.2-6.1,6.3-10.1,4.8-3.1-1.3-5.2-5.2-4.6-8.8h0Z" fill="#fef5f9"/><path d="M317,126.7l.4-1.3c1.3-4.8,6.3-7.6,10.7-6.1,4.6,1.3,6.9,6.1,6.1,10.1l-.4,.6-.4,.6c-1.3,4.6-6.1,7.6-10.7,6.1-4.4-.4-7.1-5.7-5.7-10.1h0Z" fill="#fef5f9"/><path d="M323.1,100.9l.4-1.3c1.3-5.2,6.3-8.6,11.5-6.9,5.2,1.3,8.6,6.3,6.9,11.5h0c0,.4-.2,.6-.4,.6l-.4,.6c-1.5,5.2-6.9,8.2-12,6.7-4.6-1-7.6-6.3-6.1-11.3h0Z" fill="#fef5f9"/><path d="M329.8,75.3l.4-1.3c2.1-5.5,7.6-9,13.4-6.9,5.5,1.5,8.6,6.9,7.6,12.4l-.4,.6-.4,1.3c-2.1,5.5-8.2,8.2-13.8,6.1-4.8-2.5-7.6-7.3-6.7-12.2h0Z" fill="#fef5f9"/><path d="M335.9,49.1l.4-1.3c1.5-6.3,8-10.1,14.1-8.6,6.3,1.5,10.1,8,8.6,14.1l-.4,.6-.4,.6c-2.1,6.1-8.6,9.4-14.9,7.6-5.2-.8-8.6-7.1-7.3-13Z" fill="#fef5f9"/><path d="M342.4,23.3l.4-1.3c2.1-6.7,8.6-10.7,15.5-9,6.3,2.1,10.7,8.6,9,14.9,0,.4-.4,.6-.4,.6l-.4,.6c-2.1,6.3-9.4,10.1-16.2,8-5.7-1-9.7-7.6-8-13.8Z" fill="#fef5f9"/><path d="M266,332.8l.4-1.3c.4-.6,1.3-1.3,2.1-.6,.4,.4,.6,.6,.6,1.3h0l-.4,1.3c-.4,.6-.6,1.3-1.5,.6h0c-1.3,.2-1.3-.6-1.3-1.3Z" fill="#fef5f9"/><path d="M269.6,306.5l.4-1.3c.4-1.3,1.3-2.1,2.7-2.1h0c1.3,.4,2.1,1.3,2.1,2.7v.4l-.4,1.3c-.4,1.3-1.5,2.1-2.7,2.1-1.3-1-2.3-1.9-2.1-3.1h0Z" fill="#fef5f9"/><path d="M273.6,280.7l.4-1.3c.4-2.1,2.1-2.7,3.8-2.7,1.5,.4,2.7,2.1,2.7,3.4v.4l-.4,1.3c-.4,2.1-2.1,2.7-3.8,2.1-1.9-.4-2.7-1.9-2.7-3.1h0Z" fill="#fef5f9"/><path d="M277.6,253.9v-1.3c.4-2.1,2.1-3.8,4.8-3.4,2.1,.4,3.8,2.1,3.4,4.8v.4l-.4,1.3c-.4,2.1-2.7,3.8-4.8,3.4-2.1-.8-3.6-2.9-2.9-5.2h0Z" fill="#fef5f9"/><path d="M281.6,227.9l.4-1.3c.6-2.7,3.4-4.6,6.3-3.8,2.1,.6,3.8,2.7,3.8,4.8v.4l-.4,1.3c-.6,2.7-3.8,3.8-6.3,2.7-2.1-.2-3.8-2.1-3.8-4.2h0Z" fill="#fef5f9"/><path d="M285.3,201.4l.4-1.3c.6-3.4,3.8-5.5,6.9-4.6,2.7,.6,4.8,3.4,4.8,6.3v.4l-.4,1.3c-.6,3.4-3.8,5.5-6.9,4.8-3.1-.6-5.2-3.6-4.8-6.9h0Z" fill="#fef5f9"/><path d="M289.3,175.2l.4-1.3c.6-3.8,4.2-6.3,8-6.1,3.8,.4,6.3,4.2,6.1,8v.4l-.4,1.3c-.6,3.8-4.6,6.1-8.2,4.8-4.2,0-6.5-3.4-5.9-7.1h0Z" fill="#fef5f9"/><path d="M293.1,148.8l.4-1.3c.6-4.6,4.6-7.6,9-6.7,4.6,.6,7.6,4.6,6.7,9v.4l-.4,1.3c-1.3,4.2-5.2,6.7-9.4,6.1-4.2-1-6.5-4.8-6.3-8.8h0Z" fill="#fef5f9"/><path d="M296.9,122.5l.4-1.3c.6-4.8,5.5-8,10.3-6.9,4.6,.6,7.6,4.8,6.9,9.7v.6l-.4,1.3c-.6,4.8-5.5,8-10.1,6.9-4.6-.6-7.3-5.5-7.1-10.3h0Z" fill="#fef5f9"/><path d="M300.9,96.3l.4-1.3c1.3-5.2,6.1-8.6,11.5-8,4.8,.6,8.6,5.5,8,10.7,0,.4-.2,.6-.4,.6l-.4,1.3c-1.3,5.2-6.3,8.6-11.5,7.6-4.8-.8-8.4-5.5-7.6-10.9Z" fill="#fef5f9"/><path d="M304.9,69.9l.4-1.3c.6-6.1,6.3-9.7,12.4-9,6.1,.6,9.7,6.3,9,12.4v.6l-.4,1.3c-1.3,5.5-6.9,9.4-12.8,8.2-5.5-1.3-9.2-6.7-8.6-12.2h0Z" fill="#fef5f9"/><path d="M308.8,43.6l.4-1.3c.4-6.3,6.1-11.3,12.4-11.3,6.3,.4,11.3,6.1,11.3,12.4s-.4,1.5-.4,2.1l-.4,.6-.4,1.3c-1.5,6.3-7.6,10.1-13.8,8.6-6.1-.6-9.9-6.3-9-12.4h0Z" fill="#fef5f9"/><path d="M266,333v-1.3c0-.6,.6-1.3,1.3-1.3s1.3,.6,1.3,1.3h0l-.4,1.3c0,.6-.6,1.3-1.3,1.3s-.8-.8-.8-1.3h0Z" fill="#fef5f9"/><path d="M267.3,306.5v-1c0-1.3,1.3-2.1,2.1-2.1h0c1.3,0,2.1,1.3,2.1,2.1v.4l-.4,1.3c-.4,1.3-1.3,2.1-2.1,2.1h-.4c-.8-.6-1.5-1.5-1.3-2.7Z" fill="#fef5f9"/><path d="M268.8,279.7v-1.3c0-2.1,1.5-2.7,3.4-2.7s2.7,1.5,2.7,3.4v.4l-.4,1.3c-.4,2.1-2.1,2.7-3.8,2.7-.6-.6-1.9-1.9-1.9-3.8h0Z" fill="#fef5f9"/><path d="M270,253v-1.3c.4-2.1,2.1-4.2,4.6-3.8,2.1,.4,4.2,2.1,3.8,4.6h0v1.7c-.4,2.1-2.1,3.8-4.6,3.4h0c-2.3-.4-3.8-1.9-3.8-4.6Z" fill="#fef5f9"/><path d="M271.5,227.2v-1.3c.4-2.7,2.7-4.8,5.5-4.8,2.7,.4,4.8,2.7,4.8,5.5h0v1.7c-.6,2.7-3.4,4.6-6.3,3.4-1.9-.8-3.8-2.5-4-4.4h0Z" fill="#fef5f9"/><path d="M273,200.8v-1.3c.4-3.4,2.7-6.1,6.3-5.5,3.4,.4,6.1,2.7,5.5,6.3v.4l-.4,1.3c-.4,3.4-3.4,5.5-6.3,5.2-3.1-1-5.2-3.8-5-6.5h0Z" fill="#fef5f9"/><path d="M274.2,173.5v-1.3c.4-3.8,3.4-6.7,7.6-6.3,3.8,.4,6.7,3.4,6.3,7.6v.4l-.4,1.3c-.6,3.8-4.2,6.3-8,6.1-2.9-.8-5.5-3.8-5.5-7.8Z" fill="#fef5f9"/><path d="M275.7,147.3v-1.3c.4-4.6,3.8-8,8.2-7.6,4.6,.4,8,3.8,7.6,8.2v1.3l-.4,1.3c-.4,4.6-4.2,7.6-8.6,6.9-4-.8-7.1-4.8-6.7-8.8Z" fill="#fef5f9"/><path d="M277,120.9v-1.3c.4-4.8,4.6-8.6,9.4-8.6,4.8,.4,8.6,4.6,8.6,9.4h0v.6l-.4,1.3c-.6,4.8-5.2,8.2-10.1,7.6-4.4-1-7.6-4.8-7.6-9h0Z" fill="#fef5f9"/><path d="M278.4,94.2v-1.3c.4-5.5,4.8-9.7,10.1-9,5.2,.4,9.7,4.8,9,10.1v.6l-.4,1.3c-.4,5.5-5.2,9.4-10.7,9-4.6-.6-8-5.7-8-10.7h0Z" fill="#fef5f9"/><path d="M279.7,67.4v-1c.4-6.1,5.5-10.3,11.3-10.1,6.1,.4,10.3,5.5,10.1,11.3v1.9c-.6,6.1-6.1,10.1-12,9-5.2-.8-9.4-5.2-9.4-11.1h0Z" fill="#fef5f9"/><path d="M266,333v-1.3c-.4-.6,.4-1.5,.6-2.1,.4-.4,1.5,.4,2.1,.6v1.9c0,.6-.6,1.3-1.3,1.3-.8,.8-1.5,.4-1.5-.4h0Z" fill="#fef5f9"/><path d="M264.8,306.3v-1.3c0-1.3,.6-2.1,2.1-2.1s2.1,.6,2.1,2.1v1.3c0,1.3-1.3,2.1-2.1,2.1h0c-.8,.2-2.1-.6-2.1-2.1Z" fill="#fef5f9"/><path d="M263.5,279.7v-1.3c0-2.1,1.3-3.4,2.7-3.4s3.4,1.3,3.4,2.7v1.3c-.4,2.1-2.1,2.7-3.4,2.7-1,1-2.7-.4-2.7-2.1h0Z" fill="#fef5f9"/><path d="M262.5,253v-1.3c-.4-2.1,1.3-4.6,3.8-4.6,2.1-.4,4.6,1.3,4.6,3.8v1.7c-.4,2.1-2.1,3.8-4.6,3.8-1.9,.6-3.8-1.3-3.8-3.4h0Z" fill="#fef5f9"/><path d="M261.4,226.6v-.6c-.4-2.7,2.1-5.2,4.8-5.2,2.7-.4,5.2,2.1,5.2,4.8v1.3c-.4,2.7-2.7,4.6-6.1,4.2-1.9-.6-3.1-1.9-4-4.4h0Z" fill="#fef5f9"/><path d="M260.2,200.2v-1.3c-.4-3.4,2.1-6.1,5.5-6.3,3.4-.4,6.1,2.1,6.3,5.5v1.5c0,3.4-2.7,6.1-6.1,6.1-2.5,.6-5.7-2.1-5.7-5.5h0Z" fill="#fef5f9"/><path d="M259.3,173.5v-1.3c-.4-3.8,2.7-6.9,6.7-6.9,3.8-.4,6.9,2.7,6.9,6.7v1.5c-.4,3.8-3.4,6.7-7.6,6.3-3.1,.2-5.9-2.7-6.1-6.3h0Z" fill="#fef5f9"/><path d="M258.1,147.3v-1.3c-.4-4.6,2.7-8.2,6.9-8.6,4.6-.4,8.2,2.7,8.6,6.9v2.1c-.4,4.6-3.8,7.6-8.2,7.6-3.6,.2-6.9-3.1-7.3-6.7h0Z" fill="#fef5f9"/><path d="M256.8,120.9v-1.3c-.4-4.8,3.4-9,8.2-9.7,4.8-.4,9,3.4,9.7,8.2v2.7c0,4.8-3.8,9-8.6,9-5.2-.8-9.2-4.8-9.2-9h0Z" fill="#fef5f9"/><path d="M256,94.2v-1.3c-.4-5.5,3.8-10.1,9.4-10.1,5.5-.4,10.1,3.8,10.1,9.4v1.9c0,5.5-4.6,9.7-9.7,9.7s-9.9-4.6-9.9-9.7h0Z" fill="#fef5f9"/><path d="M266,332.8l.4-.6c.4-.6,.6-1.3,1.5-.6h0c.6,.4,1.3,.6,.6,2.1h0l-.4,.6c-.4,.6-1.3,.6-2.1,.6h0c0-1-.4-1.5,0-2.1h0Z" fill="#fef5f9"/><path d="M274.4,307.8l.4-.6c.4-1.3,2.1-2.1,2.7-1.3,1.3,.4,2.1,2.1,1.3,2.7h0l-.4,.6c-.4,1.3-2.1,1.5-2.7,1.3-1.3-.6-1.5-1.9-1.3-2.7h0Z" fill="#fef5f9"/><path d="M283.5,282.8l.4-.6c.6-2.1,2.1-2.7,4.2-2.1,2.1,.6,2.7,2.1,2.1,4.2h0v.4l-.4,.6c-.6,1.5-2.7,2.1-4.2,2.1h0c-2.1-1.3-2.3-3.4-2.1-4.6Z" fill="#fef5f9"/><path d="M292.1,257.7l.4-.6c.6-2.1,2.7-3.4,5.2-2.7,2.1,.6,3.4,2.7,2.7,5.2,0,0,0,.4-.4,.4l-.4,.6c-.6,2.1-3.4,3.4-5.2,2.1-1.9-.4-3.1-2.7-2.3-5h0Z" fill="#fef5f9"/><path d="M300.9,232.7l.4-.6c.6-2.7,3.4-4.6,6.1-3.8,2.7,.6,4.6,3.4,3.8,6.1,0,.4-.4,.6-.4,1.3v.4l-.4,.6c-1.5,2.1-4.6,3.4-6.9,2.1-1.5-2.1-2.7-4-2.5-6.1h0Z" fill="#fef5f9"/><path d="M309.7,207.7l.4-.6c1.3-2.7,4.6-4.8,7.6-3.8,2.7,1.3,4.8,4.6,3.8,7.6h0l-.4,.4-.4,.6c-1.3,2.7-4.8,4.6-8.2,2.7-2.1-1-3.6-4-2.7-6.9h0Z" fill="#fef5f9"/><path d="M318.5,182.3l.4-.6c1.3-3.8,4.8-5.5,8.6-4.6,3.8,1,5.5,4.8,4.6,8.6,0,.4-.2,.4-.4,.4,0,.4-.2,.4-.4,.4l-.4,.6c-2.1,3.4-6.1,4.6-9.4,2.7-2.3-.8-3.8-4.6-2.9-7.6h0Z" fill="#fef5f9"/><path d="M327.7,157.4l.4-.6c1.5-4.2,6.1-6.1,10.1-4.6,3.8,1.5,6.1,5.5,4.6,9.7,0,.4-.4,.4-.4,.4l-.4,.6c-2.1,3.8-6.3,5.5-10.3,3.8-3.8-1.7-5.2-5.7-4-9.2h0Z" fill="#fef5f9"/><path d="M335.9,132.2l.4-.6c1.5-4.6,6.3-6.9,11.3-5.5,4.6,1.5,6.9,6.3,5.5,11.3h0l-.4,.6-.4,.6c-2.1,4.6-6.9,6.7-11.3,4.8-4.2-1.7-6.3-6.9-5-11.3h0Z" fill="#fef5f9"/><path d="M344.9,107.2l.4-.6c1.5-5.2,6.9-8.2,12.4-6.3,5.2,1.5,8.2,6.9,6.3,12.4,0,.4-.4,.4-.4,.6,0,.4-.4,.4-.4,.6l-.4,.6c-2.1,4.8-8,6.9-12.8,4.8-4.4-2.1-6.5-7.3-5-12.2Z" fill="#fef5f9"/><path d="M354.2,82.3l.4-.6c2.1-5.5,8.2-8.6,13.8-6.3,5.5,2.1,8.6,8.2,6.3,13.8l-.4,.6-.4,.6c-2.1,5.5-8.6,8.2-13.8,5.5-5.7-2.3-8.4-8.4-5.9-13.6Z" fill="#fef5f9"/><path d="M362.6,57.1l.4-.6c2.1-6.1,8.6-9.7,14.5-7.6,6.1,2.1,9.7,8.6,7.6,14.5,0,.4-.4,.4-.4,.4,0,.4-.4,.4-.4,.6l-.4,.6c-2.7,6.1-9.7,8.2-15.5,5.5-5-2.1-7.3-8-5.7-13.4h0Z" fill="#fef5f9"/><path d="M371.8,32.1l.4-.6c2.7-6.3,9.7-9.7,16.4-6.9,6.1,2.1,9.4,9,7.6,15.5,0,.4-.4,.6-.4,.6l-.4,.6c-2.7,6.3-10.1,9-16.8,6.3-6.1-3.4-8.8-9.4-6.7-15.5h0Z" fill="#fef5f9"/><path d="M266,332.8l.4-.6c.4-.6,1.3-.6,2.1-.4,.4,.4,.6,.6,.6,1.5h0l-.4,.6c-.4,.6-1.3,.6-2.1,.4-.6-.4-.6-.8-.6-1.5Z" fill="#fef5f9"/><path d="M277,308.6l.4-.6c.4-1.3,2.1-1.5,2.7-1.3,1.3,.4,1.5,2.1,1.3,2.7h0v.4l-.4,.6c-.6,1.3-2.1,1.3-2.7,.6-1.3,0-1.5-1.3-1.3-2.5h0Z" fill="#fef5f9"/><path d="M288.3,284.7l.4-.6c.6-1.5,2.7-2.1,4.2-1.5s2.1,2.7,1.5,4.2h0v.4l-.4,.6c-.6,1.5-2.7,2.1-4.6,1.3-1-1.5-1.7-2.9-1-4.4h0Z" fill="#fef5f9"/><path d="M299.4,260.4l.4-.6c.6-2.1,3.4-2.7,5.5-2.1s2.7,3.4,2.1,5.5v.4s0,.4-.4,.4l-.4,.6c-1.3,2.1-3.4,2.7-5.5,2.1-2.1-1-2.7-4.2-1.7-6.3h0Z" fill="#fef5f9"/><path d="M310.3,236.7l.4-.6c.6-2.7,3.8-4.2,6.3-3.4,2.7,.6,4.2,3.8,3.4,6.3-.4,.4-.4,.6-.4,1.3l-.4,.4-.4,.6c-2.1,2.1-4.8,2.7-6.9,1.3-1.5-1.9-2.1-3.8-1.9-5.9h0Z" fill="#fef5f9"/><path d="M321.6,212.1l.4-.6c1.3-2.7,4.8-4.6,8.2-2.7,2.7,1.3,4.6,4.8,2.7,8.2l-.4,.4-.4,.6c-2.1,2.7-5.5,3.8-8.2,2.1-2.3-1.9-3.6-5-2.3-8h0Z" fill="#fef5f9"/><path d="M332.8,188l.4-.6c1.5-3.4,5.5-4.8,9-3.4,3.4,1.5,4.8,5.5,3.4,9h0l-.4,.4-.4,.6c-2.1,3.4-6.1,4.6-9.4,2.7-2.7-1.9-4.2-5.7-2.5-8.8h0Z" fill="#fef5f9"/><path d="M343.9,164.1l.4-.6c2.1-3.8,6.3-6.1,10.3-4.2,3.8,2.1,6.1,6.3,4.2,10.3,0,0,0,.4-.4,.4,0,.4-.4,.4-.4,.4l-.4,.6c-2.1,3.8-6.9,4.8-10.7,2.7-3.4-1.9-4.4-6.1-2.9-9.7h0Z" fill="#fef5f9"/><path d="M354.8,139.7l.4-.6c2.1-4.6,7.6-6.1,11.5-3.8,4.2,2.1,6.1,6.9,4.2,11.3,0,.4-.4,.4-.4,.6l-.4,.6c-2.1,4.2-8,5.5-12,3.4-3.4-2.5-4.6-7.3-3.4-11.5Z" fill="#fef5f9"/><path d="M365.9,116l.4-.6c2.1-4.8,8.2-6.9,13-4.8,4.8,2.1,6.9,8.2,4.8,13l-.4,.6-.4,.6c-2.7,4.8-8.6,6.3-13.4,3.8-4-2.9-5.7-8.4-4-12.6h0Z" fill="#fef5f9"/><path d="M377.2,91.5l.4-.6c2.7-5.2,9-7.6,14.1-4.8,4.8,2.7,6.9,8.6,4.8,13.8,0,.4-.4,.4-.4,.6l-.4,.6c-2.7,5.2-9.4,6.9-14.5,4.2-4.4-2.9-6.1-8.6-4-13.8h0Z" fill="#fef5f9"/><path d="M388.4,67.4l.4-.6c2.7-6.1,9.7-8.6,15.5-5.5,6.1,2.7,8.6,9.7,5.5,15.5,0,.4-.4,.4-.4,.6l-.4,.6c-2.7,5.5-9.7,8.2-15.5,5.2-5.9-3.1-8-10.1-5-15.9h0Z" fill="#fef5f9"/><path d="M399.7,43.4l.4-.6c2.7-6.3,10.1-9.4,16.4-6.3,6.3,2.7,9.4,10.1,6.3,16.4,0,.4-.4,.4-.4,.6-.4,.4-.4,.6-.4,.6l-.6,.6c-3.4,6.1-11.3,8.2-17.2,4.6-5-3.4-7.1-10.3-4.4-15.9h0Z" fill="#fef5f9"/><path d="M266.3,332.8l.4-.6c.4-.6,1.3-.6,2.1-.4,.4,.4,.6,1.3,.4,1.5h0l-.6,.6c-.4,.6-1.3,.6-2.1,.4h0c-.2-.4-.4-.8-.2-1.5h0Z" fill="#fef5f9"/><path d="M279.3,309.9l.4-.6c.6-1.3,2.1-1.3,2.7-.6,.6,.4,1.3,2.1,.6,2.7v.4l-.6,.6c-.6,1.3-2.1,1.3-2.7,.6-.4-1-.6-1.9-.4-3.1h0Z" fill="#fef5f9"/><path d="M292.9,286.8l.4-.6c.6-1.5,2.7-2.1,4.6-1.3,1.5,.6,2.1,2.7,1.3,4.6l-.4,.4-.6,.6c-1.3,1.3-2.7,2.1-4.6,.6-1-1.5-1.5-2.9-.6-4.4h0Z" fill="#fef5f9"/><path d="M306.3,264l.4-.6c1.3-2.1,3.8-2.7,5.5-1.5,2.1,1.3,2.7,3.8,1.5,5.5l-.4,.4-.6,.6c-1.3,2.1-3.8,2.1-5.5,1.3-1.7-1.7-2.3-4-.8-5.7h0Z" fill="#fef5f9"/><path d="M319.8,240.9l.4-.6c2.1-2.1,4.8-2.7,6.9-1.3s2.7,3.8,1.5,6.1v.4l-.6,.6c-2.1,2.1-5.2,2.1-6.9,.4-1.9-1-2.5-3.8-1.3-5.7h0Z" fill="#fef5f9"/><path d="M333.2,217.8l.4-.6c2.1-2.7,5.5-3.8,8.2-2.1,2.7,2.1,3.8,5.5,2.1,8.2h0l-.4,.4-.6,.6c-2.1,2.7-5.5,3.8-8.2,2.1-2.7-2.5-3.6-5.7-1.5-8.6h0Z" fill="#fef5f9"/><path d="M346.2,194.9l.4-.6c2.1-3.4,6.1-4.6,9.7-2.7,3.4,2.1,4.6,6.1,2.7,9.7h0l-.4,.4-.6,.6c-2.1,2.7-6.3,3.8-9.7,1.5-2.7-2.1-3.6-5.7-2.1-8.8h0Z" fill="#fef5f9"/><path d="M359.6,171.8l.4-.6c2.1-3.8,6.9-4.8,10.7-2.7,3.8,2.1,4.8,6.9,2.7,10.7l-.4,.6-.6,.6c-2.7,3.4-7.6,4.6-10.7,2.1-3.4-2.5-4-6.9-2.1-10.7h0Z" fill="#fef5f9"/><path d="M373.1,148.8l.4-.6c2.1-4.2,8-5.5,12.4-3.4,4.2,2.1,5.5,8,3.4,12.4l-.4,.4-.6,.4c-2.7,4.2-8.2,5.5-12.4,2.7-4-2.3-5.2-8-2.7-12h0Z" fill="#fef5f9"/><path d="M386.3,125.7l.4-.6c2.7-4.6,8.6-6.3,13.4-3.4,4.6,2.7,6.3,8.6,3.4,13.4l-.4,.6-.6,.6c-2.7,4.6-9,6.1-13.4,2.7-4.2-2.7-5.5-8.6-2.7-13.4Z" fill="#fef5f9"/><path d="M399.7,102.6l.4-.6c2.7-5.2,9.7-6.7,14.5-3.8,5.2,2.7,6.7,9.7,3.8,14.5h0c-.4,.4-.4,.6-.4,.6l-.6,.6c-3.4,4.8-10.1,6.1-14.9,2.7-4.2-2.7-5.5-9.2-2.7-14.1h0Z" fill="#fef5f9"/><path d="M413.1,80.2l.4-.6c3.4-5.5,10.3-7.6,16.2-4.2,5.5,3.4,7.6,10.3,4.2,16.2l-.4,.6-.6,.6c-3.8,5.2-10.7,6.3-16.2,2.7-5-3.6-6.7-10.5-3.6-15.3h0Z" fill="#fef5f9"/><path d="M426.6,57.1l.4-.6c3.4-6.1,11.3-8.2,17.2-4.6,6.1,3.4,8.2,11.3,4.6,17.2h0l-.4,.6-.6,.6c-3.8,6.1-11.5,7.6-17.6,3.8-5.9-3.6-7.3-11.5-3.6-17h0Z" fill="#fef5f9"/><path d="M266.3,332.8l.6-.6c.4-.6,1.3-.6,2.1-.4,.6,.4,.6,1.3,.4,2.1l-.4,.4h0l-.6,.6c-.4,.4-1.3,.6-2.1,.4-.2-1.5-.2-1.9,0-2.5Z" fill="#fef5f9"/><path d="M281.6,311.2l.6-.6c.6-1.3,2.1-1.5,2.7-.6,1.3,.6,1.5,2.1,.6,2.7,0,.4-.4,.4-.4,.4v.4l-.6,.6c-.6,.6-2.1,1.3-2.7,.4-.6-.6-.8-2.7-.2-3.4h0Z" fill="#fef5f9"/><path d="M296.9,289.5l.6-.6c1.3-1.3,3.4-1.3,4.6,0,1.3,1.3,1.3,2.7,.6,3.8l-.4,.4-.6,.6c-1.3,1.3-2.7,2.1-4.6,.6-1-1.5-1-3.4-.2-4.8h0Z" fill="#fef5f9"/><path d="M312.8,267.9l.6-.6c1.5-2.1,4.2-2.1,6.1-.6,1.5,1.3,2.1,3.8,.6,5.5l-.4,.4-.6,.6c-1.3,2.1-3.8,2.1-6.1,.6-1.5-1.7-1.9-4.2-.2-5.9h0Z" fill="#fef5f9"/><path d="M328.4,246.1l.6-.6c1.3-2.1,4.6-3.4,6.9-2.1,2.1,1.3,3.4,4.6,2.1,6.9-.4,.4-.4,.6-.6,1.3l-.4,.4-.6,.6c-2.1,2.1-5.2,2.1-6.9-.4-2.3-1.5-2.3-3.8-1-6.1h0Z" fill="#fef5f9"/><path d="M343.5,224.7l.6-.6c2.1-2.7,5.5-3.4,8.6-1.3,2.7,2.1,3.4,5.5,1.3,8.6l-.4,.4-.6,.6c-2.1,2.7-6.1,2.7-8.6,.6-2.1-2.3-2.5-5.9-.8-8.4h0Z" fill="#fef5f9"/><path d="M359.2,203.3l.6-.6c2.1-2.7,6.3-3.8,9.7-1.5,3.4,2.1,3.8,6.3,1.5,9.7l-.4,.4-.6,.6c-2.1,2.7-6.9,3.4-9.7,.6s-3.4-6.3-1-9.2h0Z" fill="#fef5f9"/><path d="M374.5,181.7l.6-.6c2.1-3.8,6.9-4.8,10.7-2.7,3.8,2.1,4.8,6.9,2.7,10.7-.4,.4-.4,.6-.6,1.3l-.4,.4-.6,.6c-2.7,3.4-7.6,4.2-11.3,1.5-3.1-3.1-3.8-8-1-11.1h0Z" fill="#fef5f9"/><path d="M390,160.1l.6-.6c2.7-3.8,8.6-4.6,12.4-1.3,3.4,2.7,4.6,8,2.1,11.5l-.4,.4-.6,.6c-2.7,3.8-8.6,4.6-12.4,1.5-3.8-3.1-4.8-8.6-1.7-12.2h0Z" fill="#fef5f9"/><path d="M405.6,138.3l.6-.6c2.7-4.6,9-5.5,13.8-2.1,4.6,2.7,5.5,9,2.1,13.8l-.4,.6-.6,.6c-3.8,3.8-9.7,4.2-13.8,.4-3.6-3.8-4.2-9.2-1.7-12.8h0Z" fill="#fef5f9"/><path d="M420.7,116.7l.6-.6c3.4-4.8,10.1-6.3,14.9-2.7,4.8,3.6,6.3,10.1,2.7,14.9-.4,.4-.4,.6-.4,.6l-.4,.6-.6,.6c-3.8,4.6-10.3,5.2-14.9,1.5-4-4.2-5-10.7-1.9-14.9h0Z" fill="#fef5f9"/><path d="M436.2,95.1l.6-.6c3.8-5.2,11.3-6.3,16.4-2.7,5.2,3.8,6.3,11.3,2.7,16.4-.4,.4-.4,.6-.4,.6l-.6,.6c-4.2,4.8-11.5,5.5-16.4,1.3-5-4.2-5.7-10.7-2.3-15.5h0Z" fill="#fef5f9"/><path d="M451.9,73.2l.6-.6c3.8-6.1,11.5-7.6,17.6-3.8,6.1,3.8,7.6,11.5,3.8,17.6-.4,.4-.4,.6-.6,1.3-.4,.4-.4,.6-.4,.6l-.6,.6c-4.6,5.2-12.4,6.1-17.6,1.3-5.5-4.6-6.5-11.7-2.7-17h0Z" fill="#fef5f9"/><path d="M266.3,332.8l.6-.6c.4-.4,1.3-.6,2.1-.4,.4,.4,.6,1.3,.4,2.1h0l-.6,.6c-.4,.4-1.3,.6-2.1,0-.6-.6-.6-1-.4-1.7h0Z" fill="#fef5f9"/><path d="M283.9,312.6l.6-.6c.6-.6,2.1-1.3,3.4-.4,.6,.6,1.3,2.1,.4,2.7h0v.4l-.6,.6c-.6,.6-2.1,.6-2.7-.4-1.5-.2-1.5-1-1-2.3h0Z" fill="#fef5f9"/><path d="M301.5,292.9l.6-.6c1.3-1.3,3.4-1.5,4.6-.4,1.3,1.3,1.5,3.4,.4,4.6l-.4,.4-.6,.6c-1.3,1.3-3.4,1.3-4.6-.4-1.5-1.7-1.5-3.4,0-4.2h0Z" fill="#fef5f9"/><path d="M318.5,272.8l.6-.6c1.5-2.1,4.2-2.1,6.1-.4,2.1,1.5,2.1,4.2,.4,6.1l-.4,.4-.6,.6c-1.5,2.1-4.2,2.1-6.1,.4-1.7-1.7-1.5-5,0-6.5h0Z" fill="#fef5f9"/><path d="M335.9,252.4l.6-.6c1.5-2.1,4.8-2.7,6.9-1.3s2.7,4.8,1.3,6.9c-.4,.4-.4,.6-.6,.6l-.4,.4-.6,.6c-2.1,2.1-5.5,1.3-6.9-1.3-1-1.3-1-3.6-.2-5.5h0Z" fill="#fef5f9"/><path d="M353.5,232.5l.6-.6c2.1-2.7,6.1-2.7,8.6-.6,2.5,2.1,2.7,6.1,.6,8.6l-.4,.4-.6,.6c-2.1,2.1-6.1,2.1-8.6,0-2.1-2.1-2.3-6.1-.2-8.4h0Z" fill="#fef5f9"/><path d="M370.7,212.5l.6-.6c2.7-2.7,6.9-3.4,9.7-.6,2.7,2.7,3.4,6.9,.6,9.7l-.4,.4-.6,.6c-2.7,2.7-6.9,2.7-9.7,.4-2.7-2.7-2.7-7.3-.2-9.9h0Z" fill="#fef5f9"/><path d="M388.4,192.4l.6-.6c2.7-3.4,8-3.8,11.3-.6,3.4,2.7,3.8,8,.6,11.3l-.4,.4-.6,.6c-2.7,3.4-8,3.4-11.3,.4-2.7-3.1-3.1-8.6-.2-11.5h0Z" fill="#fef5f9"/><path d="M405.8,172.3l.6-.6c3.4-3.8,8.6-4.2,12.4-.6,3.8,3.4,4.2,8.6,.6,12.4h0l-.4,.4-.6,.6c-3.8,3.4-9.4,2.7-12.4-.6-2.3-3.8-2.7-8.2-.2-11.5h0Z" fill="#fef5f9"/><path d="M423.2,152.1l.6-.6c3.8-3.8,10.1-3.8,13.8,0s3.8,9,.6,12.8l-.4,.4-.6,.6c-3.8,3.8-10.1,3.8-13.8,0-3.4-3.8-3.4-9.2-.2-13.2h0Z" fill="#fef5f9"/><path d="M440.8,132.2l.6-.6c3.8-4.6,10.7-4.8,14.9-1.3,4.6,3.8,4.8,10.7,1.3,14.9l-.4,.6-.6,.6c-4.2,4.2-10.7,4.2-14.9,0-4.2-4-4.8-10.1-.8-14.3h0Z" fill="#fef5f9"/><path d="M458.2,112l.6-.6c4.2-4.8,11.5-5.5,16.4-1.3,4.8,4.2,5.5,11.5,1.3,16.4h0l-.6,.6-.6,.6c-4.6,4.6-12,4.6-16.4-.4-4.4-3.8-4.8-10.7-.6-15.3h0Z" fill="#fef5f9"/><path d="M266.7,332.8l.6-.6c.4-.4,1.3-.4,2.1,0,.4,.4,.4,1.3,0,2.1h0l-.6,.6c-.4,.4-1.3,.4-2.1-.4h0c-.4-.6-.4-1,0-1.7Z" fill="#fef5f9"/><path d="M285.8,314.5l.6-.6c.6-.6,2.1-.6,3.4,0,1.3,.6,.6,2.1,0,3.4h-.4l-.6,.6c-.6,.6-2.1,.6-2.7-.4-1-1.3-1-2.3-.2-2.9h0Z" fill="#fef5f9"/><path d="M305.3,296.3l.6-.6c1.3-1.3,3.4-1.3,4.6,.4,1.3,1.3,1.3,3.4,0,4.6l-.4,.4-.6,.6c-1.3,1.3-3.4,.6-4.6-.6-.8-2.1-.8-3.8,.4-4.8h0Z" fill="#fef5f9"/><path d="M324.2,278l.6-.6c2.1-1.5,4.6-1.3,6.1,.4,1.3,1.5,1.3,3.8-.4,5.5l-.4,.4-.6,.6c-2.1,1.5-4.6,1.3-5.5-.4h0c-1.5-2.3-1.5-4.8,.2-5.9Z" fill="#fef5f9"/><path d="M343.5,259.1l.6-.6c2.1-2.1,4.8-2.1,6.9-.6,2.1,2.1,2.1,4.8,.6,6.9-.4,.4-.4,.6-.6,.6l-.4,.4-.6,.6c-2.1,1.5-5.5,.6-6.9-1.5-.8-1.3-.8-4,.4-5.9Z" fill="#fef5f9"/><path d="M362.6,240.9l.6-.6c2.7-2.1,6.3-2.1,8.6,.6,2.1,2.1,2.1,5.5-.4,8.2l-.4,.4-.6,.6c-2.7,2.1-6.3,2.1-8.6-.6-1.3-2.5-.8-6.3,.8-8.6h0Z" fill="#fef5f9"/><path d="M382.1,223l.6-.6c2.7-2.7,6.9-2.1,9.7,.4,2.7,2.7,2.1,6.9-.4,9.7l-.4,.4-.6,.6c-2.7,2.1-7.6,2.1-9.7-1.3-1.9-2.9-1.3-6.7,.8-9.2h0Z" fill="#fef5f9"/><path d="M401.6,204.8l.6-.6c3.4-2.7,8.2-2.7,11.3,.4,2.7,2.7,2.7,8.2-.4,11.3l-.4,.4-.6,.6c-3.4,2.7-8.2,2.1-11.3-1.3-2.5-4-2.3-8.4,.8-10.9h0Z" fill="#fef5f9"/><path d="M420.7,185.9l.6-.6c3.8-3.4,9.4-2.7,12.4,.6,2.7,3.4,2.7,8.6-.4,11.5l-.4,.4-.6,.6c-3.8,3.4-9,2.7-12.4-.6-3.4-2.9-2.5-8.4,.8-12h0Z" fill="#fef5f9"/><path d="M439.8,167.6l.6-.6c4.2-3.4,10.1-2.7,13.8,.6,3.4,3.8,3.4,9.7-.4,13.4l-.4,.4-.6,.6c-3.8,3.4-10.1,3.4-13.8-.6-3.4-4-3.1-10.5,.8-13.8h0Z" fill="#fef5f9"/><path d="M459.1,149.4l.6-.6c4.6-4.2,11.3-3.8,15.5,.4,4.2,4.6,3.8,11.3-.4,15.5l-.6,.4-.6,.6c-4.6,3.8-11.3,2.7-14.9-1.5-4.2-4.8-3.6-10.7,.4-14.9h0Z" fill="#fef5f9"/><path d="M266.7,332.8l.6-.6c.6-.4,1.3-.4,2.1,.4,.4,.6,.4,1.3-.4,2.1h0l-.6,.6c-.6,.4-1.3,.4-2.1-.4,0-1,0-1.9,.4-2.1h0Z" fill="#fef5f9"/><path d="M287.7,316.2l.6-.6c.6-.6,2.1-.6,3.4,.4,.6,.6,.6,2.1-.4,3.4l-.4,.4h-.4l-.6,.6c-1.3,.6-2.1,.4-2.7-.6h0c0-1.5,0-2.5,.6-3.6h0Z" fill="#fef5f9"/><path d="M308.4,299.8l.6-.6c1.3-1.3,3.4-.6,4.6,.6,1.3,1.3,.6,3.4-.6,4.6h-.2l-.4,.6c-1.5,.6-3.4,.4-4.6-.6-.8-2.1-.4-3.4,.6-4.6h0Z" fill="#fef5f9"/><path d="M329.4,283.5l.6-.6c2.1-1.5,4.6-1.3,6.1,.4,1.5,2.1,1.3,4.6-.4,6.1l-.4,.4-.4,.4-.4,.4c-2.1,1.3-4.6,.6-5.5-.6-1.3-2.3-1.3-5,.4-6.5h0Z" fill="#fef5f9"/><path d="M350.4,267.1l.6-.6c2.1-2.1,5.2-2.1,6.9,0,2.1,2.1,2.1,5.2,0,6.9-.4,.4-.6,.4-.6,.6l-.4,.4-.6,.6c-2.7,1.3-5.5,.4-6.9-2.1-1-1.9-.6-4.4,1-5.9h0Z" fill="#fef5f9"/><path d="M371.2,250.7l.6-.6c2.7-2.1,6.3-1.5,8.6,1.3,2.1,2.7,1.5,6.3-1.3,8.6l-.4,.4-.6,.6c-2.7,2.1-6.3,1.3-8.2-1.3-1.9-3.6-1.3-7.3,1.3-9h0Z" fill="#fef5f9"/><path d="M392.1,234.2l.6-.6c2.7-2.1,7.6-2.1,9.7,1.3,2.1,2.7,2.1,7.6-1.3,9.7h0l-.4,.4-.6,.6c-3.4,2.1-7.6,1.3-9.7-2.1-1.7-2.7-1-6.7,1.7-9.2h0Z" fill="#fef5f9"/><path d="M413.1,217.8l.6-.6c3.4-2.7,8.6-2.1,11.3,1.3,2.7,3.4,2.1,8.6-1.3,11.3l-.4,.4-.6,.6c-3.4,2.7-8.6,2.1-11.3-2.1-2.5-4-2.1-8.4,1.7-10.9h0Z" fill="#fef5f9"/><path d="M434.1,201.4l.6-.6c3.8-2.7,9.4-2.1,12.4,1.5,2.7,3.8,2.1,9.4-1.5,12.4l-.4,.4-.6,.6c-3.8,2.7-9.4,2.1-12.4-2.1-3.1-3.8-1.9-9.7,1.9-12.2h0Z" fill="#fef5f9"/><path d="M454.9,184.9l.6-.6c4.2-3.4,10.3-2.7,13.8,1.5,3.4,4.2,2.7,10.3-1.5,13.8l-.6,.4-.6,.6c-4.6,3.4-10.3,2.1-13.8-2.1-3.6-4.6-2.3-10.5,2.1-13.6h0Z" fill="#fef5f9"/></g><path d="M404.8,66.1c0,0,0,.2-.1,.2,0,0-.1,.1-.2,.1-.1,0-.2,0-.2-.1,0,0-.1-.1-.1-.2,0,0,0-.2,.1-.2,0,0,.1-.1,.2-.1,.1,0,.2,0,.2,.1,0,0,.1,.1,.1,.2Z" fill="#0088ce"/></svg>