<?xml version="1.0" encoding="UTF-8" standalone="no"?>
<svg
   id="Capa_1"
   viewBox="0 0 199.9 41.7"
   version="1.1"
   sodipodi:docname="boonmartillo55_shine.svg"
   inkscape:version="1.2.2 (732a01da63, 2022-12-09)"
   xmlns:inkscape="http://www.inkscape.org/namespaces/inkscape"
   xmlns:sodipodi="http://sodipodi.sourceforge.net/DTD/sodipodi-0.dtd"
   xmlns:xlink="http://www.w3.org/1999/xlink"
   xmlns="http://www.w3.org/2000/svg"
   xmlns:svg="http://www.w3.org/2000/svg">
  <defs
     id="defs25">
    <linearGradient
       inkscape:collect="always"
       id="linearGradient2172">
      <stop
         style="stop-color:#fe9500;stop-opacity:1;"
         offset="0"
         id="stop2168" />
      <stop
         style="stop-color:#fe9500;stop-opacity:0;"
         offset="1"
         id="stop2170" />
    </linearGradient>
    <linearGradient
       inkscape:collect="always"
       id="linearGradient2164">
      <stop
         style="stop-color:#fe9500;stop-opacity:1;"
         offset="0"
         id="stop2160" />
      <stop
         style="stop-color:#fe9500;stop-opacity:0;"
         offset="1"
         id="stop2162" />
    </linearGradient>
    <linearGradient
       inkscape:collect="always"
       id="linearGradient1430">
      <stop
         style="stop-color:#fe9500;stop-opacity:1;"
         offset="0"
         id="stop1426" />
      <stop
         style="stop-color:#fe9500;stop-opacity:0;"
         offset="1"
         id="stop1428" />
    </linearGradient>
    <linearGradient
       inkscape:collect="always"
       id="linearGradient1358">
      <stop
         style="stop-color:#fe9500;stop-opacity:1;"
         offset="0"
         id="stop1354" />
      <stop
         style="stop-color:#fe9500;stop-opacity:0;"
         offset="1"
         id="stop1356" />
    </linearGradient>
    <linearGradient
       inkscape:collect="always"
       xlink:href="#linearGradient1358"
       id="linearGradient1360"
       x1="101.06676"
       y1="10.190434"
       x2="100.64797"
       y2="31.129679"
       gradientUnits="userSpaceOnUse"
       gradientTransform="translate(-0.4187849,-0.27918994)" />
    <linearGradient
       inkscape:collect="always"
       xlink:href="#linearGradient1430"
       id="linearGradient1432"
       x1="90.457535"
       y1="20.939245"
       x2="109.72164"
       y2="20.79965"
       gradientUnits="userSpaceOnUse"
       gradientTransform="translate(-0.55837987,0.4187849)" />
    <linearGradient
       inkscape:collect="always"
       xlink:href="#linearGradient2164"
       id="linearGradient2166"
       x1="100.50838"
       y1="30.152512"
       x2="100.64797"
       y2="9.6320524"
       gradientUnits="userSpaceOnUse" />
    <linearGradient
       inkscape:collect="always"
       xlink:href="#linearGradient2172"
       id="linearGradient2174"
       x1="111.25719"
       y1="21.218435"
       x2="88.363617"
       y2="20.939245"
       gradientUnits="userSpaceOnUse"
       gradientTransform="translate(0.4187849)" />
  </defs>
  <sodipodi:namedview
     id="namedview23"
     pagecolor="#ffffff"
     bordercolor="#000000"
     borderopacity="0.25"
     inkscape:showpageshadow="2"
     inkscape:pageopacity="0.0"
     inkscape:pagecheckerboard="0"
     inkscape:deskcolor="#d1d1d1"
     showgrid="false"
     inkscape:zoom="7.163582"
     inkscape:cx="96.878908"
     inkscape:cy="20.79965"
     inkscape:window-width="1920"
     inkscape:window-height="1017"
     inkscape:window-x="-8"
     inkscape:window-y="-8"
     inkscape:window-maximized="1"
     inkscape:current-layer="Capa_1" />
  <rect
     width="199.9"
     height="41.7"
     id="rect18"
     style="stroke-width:1;stroke-dasharray:none" />
  <path
     style="fill:url(#linearGradient2174);fill-opacity:1"
     d="M 100.48108,21.00073 90.149178,9.8826966 90.710695,30.99573 Z"
     id="path1253" />
  <path
     style="fill:url(#linearGradient2166);fill-opacity:1"
     d="M 100.28691,21.00073 109.8327,11.34264 91.190337,10.781124 Z"
     id="path1255" />
  <path
     style="fill:url(#linearGradient1360);fill-opacity:1"
     d="M 99.868125,21.170754 90.434642,30.71654 H 108.8524 Z"
     id="path1257" />
  <path
     style="fill:url(#linearGradient1432);fill-opacity:1"
     d="m 99.95314,21.307212 8.5109,-8.674651 0.10917,17.658921 z"
     id="path1259"
     sodipodi:nodetypes="cccc" />
  <path
     d="M109.4,32.7l-8.1-8.1,1.9-1.9,8.1,8.1-1.9,1.9Zm-18.9,0l-1.9-1.9,9.4-9.4-3.5-3.5-.8,.8-1.4-1.4v2.8l-.8,.8-3.9-4,.8-.8h2.8l-1.5-1.5,4.3-4.3c.4-.4,.8-.6,1.2-.8s.9-.2,1.4-.2,1,0,1.4,.3c.4,.2,.9,.5,1.2,.9l-3.5,3.5,1.5,1.5-.8,.8,3.4,3.4,4-4c-.2-.3-.3-.6-.4-1s-.2-.8-.2-1.1c0-1.1,.4-2.2,1.2-3,.9-.9,1.9-1.2,3-1.2s.6,0,.9,0,.4,.2,.6,.2l-2.8,2.8,2.4,2.4,2.8-2.8c0,.2,.2,.4,.3,.6s0,.6,0,.9c0,1.1-.4,2.2-1.2,3s-1.9,1.2-3,1.2-.7,0-1,0-.6-.2-.8-.2l-15.3,15.3h.2Z"
     fill="#e28b09"
     id="path20"
     style="stroke:#ff6600;stroke-opacity:1;stroke-miterlimit:0;stroke-width:0.4;stroke-dasharray:none" />
</svg>
