<?xml version="1.0" encoding="UTF-8"?><svg id="Capa_1" xmlns="http://www.w3.org/2000/svg" viewBox="0 0 199.9 41.7"><rect width="199.9" height="41.7"/><path d="M109.4,32.7l-8.1-8.1,1.9-1.9,8.1,8.1-1.9,1.9Zm-18.9,0l-1.9-1.9,9.4-9.4-3.5-3.5-.8,.8-1.4-1.4v2.8l-.8,.8-3.9-4,.8-.8h2.8l-1.5-1.5,4.3-4.3c.4-.4,.8-.6,1.2-.8s.9-.2,1.4-.2,1,0,1.4,.3c.4,.2,.9,.5,1.2,.9l-3.5,3.5,1.5,1.5-.8,.8,3.4,3.4,4-4c-.2-.3-.3-.6-.4-1s-.2-.8-.2-1.1c0-1.1,.4-2.2,1.2-3,.9-.9,1.9-1.2,3-1.2s.6,0,.9,0,.4,.2,.6,.2l-2.8,2.8,2.4,2.4,2.8-2.8c0,.2,.2,.4,.3,.6s0,.6,0,.9c0,1.1-.4,2.2-1.2,3s-1.9,1.2-3,1.2-.7,0-1,0-.6-.2-.8-.2l-15.3,15.3h.2Z" fill="#e28b09"/></svg>